<svg width="303" height="100" viewBox="0 0 303 100" fill="none" xmlns="http://www.w3.org/2000/svg">
<path d="M62.8057 65.8456H86.7113V59.7192H70.0514V52.2028H83.8554V46.0764H70.0514V39.1264H86.8171V33H62.8057V65.8456ZM115.483 53.6958L99.8277 33H89.0385L92.4233 37.17V65.9485H99.6162V44.3775L115.8 65.8456H122.729V33H115.483V53.6958ZM51.9106 48.9594C55.0839 48.3931 57.7283 45.5101 57.7283 41.4431C57.7283 37.0671 54.4492 33 47.9439 33H27L30.2791 37.0671V65.897H48.6844C55.1897 65.897 58.5746 61.9329 58.5746 56.9906C58.4159 52.9236 55.5599 49.4228 51.9106 48.9594V48.9594ZM37.472 39.1778H46.5159C48.9488 39.1778 50.4826 40.5679 50.4826 42.6271C50.4826 44.6864 48.9488 46.0764 46.5159 46.0764H37.472V39.1778ZM46.8333 59.7707H37.472V52.2028H46.8333C49.5835 52.2028 51.1172 53.9017 51.1172 55.961C51.1172 58.3292 49.4777 59.7192 46.8333 59.7707V59.7707ZM228.4 53.6958H232.155V57.5569C230.198 59.1014 227.766 59.9766 225.227 60.0281C219.198 60.0281 214.966 55.5491 214.966 49.5257C214.966 43.5023 219.25 39.0234 225.227 39.0234C228.347 39.0234 231.256 40.6193 232.949 43.1934L238.661 40.1045C236.228 36.3463 231.944 33 225.174 33C215.601 33 207.668 39.4353 207.668 49.4228C207.668 59.4103 215.495 65.8456 225.174 65.8456C230.463 65.9485 235.487 63.7348 238.978 59.9251V47.7754H223.534L228.4 53.6958ZM195.874 53.6958L180.166 33H169.429L172.761 37.17V65.9485H180.007V44.3775L196.191 65.8456H203.066V33H195.874V53.6958ZM262.884 33H248.974L252.306 37.17L251.724 38.766L240.935 65.9485H249.08L251.195 60.3885H265.74L267.855 65.9485H276L262.884 33ZM253.046 54.2106L258.335 40.053L263.624 54.2106H253.046ZM158.005 33H165.251V66H158.005V33ZM152.24 38.663V33H126.801V39.1264H142.773L126.801 60.234V65.8456H152.505V59.7192H136.162L152.24 38.663Z" fill="white"/>
</svg>
