<svg width="110" height="42" viewBox="0 0 110 42" fill="none" xmlns="http://www.w3.org/2000/svg">
<path d="M33.4503 20.01C34.0485 19.662 34.5877 19.2335 34.9976 18.6347C35.6383 17.7008 35.9595 16.5616 35.9595 15.2211C35.9595 14.126 35.701 13.0675 35.1841 12.0401C34.6671 11.0164 33.8768 10.174 32.8151 9.51467C31.7515 8.8554 30.3907 8.52393 28.7326 8.52393H19V32.8697H29.7223C31.3361 32.8697 32.6914 32.5656 33.7882 31.9577C34.8849 31.3497 35.7102 30.5018 36.268 29.4231C36.8255 28.3408 37.1026 27.0771 37.1026 25.634C37.1026 24.191 36.7019 22.9694 35.9024 21.8652C35.2986 21.0319 34.4806 20.4148 33.4521 20.0118L33.4503 20.01ZM23.16 12.3313H28.6828C29.6595 12.3313 30.4203 12.6115 30.9668 13.1755C31.5134 13.7396 31.7848 14.4428 31.7848 15.287C31.7848 15.9298 31.6481 16.4719 31.3749 16.9096C31.1034 17.3492 30.7341 17.6842 30.267 17.9076C29.8017 18.1348 29.2736 18.2466 28.6828 18.2466H23.16V12.3313ZM32.4753 27.383C32.1522 27.9086 31.7054 28.3152 31.1367 28.6027C30.568 28.8902 29.9254 29.033 29.2108 29.033H23.16V22.0501H29.3309C30.0934 22.0501 30.7452 22.2058 31.2918 22.5172C31.8383 22.8266 32.2519 23.2405 32.5363 23.7588C32.8206 24.2771 32.9628 24.863 32.9628 25.5187C32.9628 26.2385 32.8003 26.8611 32.4772 27.3848L32.4753 27.383Z" fill="white"/>
<path d="M48.6955 19.1797H54.2556C57.3251 19.1797 59.814 16.7345 59.814 13.7185C59.814 10.7026 57.3251 8.25732 54.2556 8.25732H48.7017V13.7185H59.814C62.8841 13.7185 65.3729 16.1638 65.3729 19.1797C65.3729 22.1957 62.8841 24.6409 59.814 24.6409H48.6917C47.1568 24.6409 45.9123 25.8636 45.9123 27.3715C45.9123 28.8795 47.1568 30.1021 48.6917 30.1021H57.0367V35.5633H48.6943C44.0894 35.5633 40.356 31.8955 40.356 27.3715C40.356 22.8476 44.0894 19.1797 48.6943 19.1797" fill="white"/>
<path d="M76.0507 12.9552C77.1477 12.2227 78.519 11.8546 80.1663 11.8546C81.9958 11.8546 83.4837 12.3014 84.6317 13.197C85.7797 14.0943 86.5926 15.3359 87.0689 16.9237L91.2107 15.792C90.4471 13.4149 89.125 11.5249 87.238 10.1203C85.351 8.71568 82.9927 8.01611 80.1663 8.01611C77.7127 8.01611 75.6089 8.54903 73.8582 9.61303C72.1108 10.6789 70.7658 12.1623 69.828 14.0687C68.8903 15.9751 68.4238 18.1837 68.4238 20.6962C68.4238 23.2089 68.8919 25.4175 69.828 27.3221C70.7641 29.2266 72.1108 30.7118 73.8582 31.7776C75.6089 32.8434 77.7127 33.3746 80.1663 33.3746C82.996 33.3746 85.3526 32.6732 87.238 31.2704C89.125 29.8694 90.4487 27.9776 91.2107 25.5988L87.0689 24.4669C86.5926 26.0455 85.7797 27.2853 84.6317 28.1846C83.4837 29.0874 81.9942 29.538 80.1663 29.538C78.5174 29.538 77.1412 29.1735 76.0408 28.4409C74.9388 27.7085 74.1128 26.6792 73.5609 25.3552C73.0108 24.0311 72.7349 22.48 72.7349 20.6982C72.7464 18.9161 73.0288 17.365 73.579 16.041C74.1292 14.7151 74.9536 13.6877 76.0507 12.9552Z" fill="white"/>
</svg>
