<svg width="400" height="100" viewBox="0 0 400 100" fill="none" xmlns="http://www.w3.org/2000/svg">
<path d="M217.873 18L204.469 49.9728H219.381L232.864 18H217.873ZM199.985 61.4344C199.97 62.4849 200.163 63.5281 200.555 64.5044C200.946 65.4807 201.527 66.371 202.266 67.1244C203.004 67.8778 203.885 68.4796 204.857 68.8954C205.83 69.3112 206.876 69.5329 207.935 69.5477H208.135C210.394 69.5477 212.561 68.6574 214.159 67.0727C215.757 65.488 216.654 63.3387 216.654 61.0976C216.669 60.051 216.477 59.0116 216.087 58.0389C215.697 57.0662 215.118 56.1792 214.382 55.4286C213.647 54.6779 212.769 54.0783 211.8 53.664C210.831 53.2497 209.789 53.0289 208.734 53.014H208.474C206.215 53.014 204.048 53.9043 202.45 55.489C200.853 57.0737 199.955 59.223 199.955 61.4641L199.985 61.4344ZM186.502 51.2953C186.502 49.902 186.085 48.54 185.305 47.3816C184.524 46.2232 183.415 45.3205 182.117 44.7875C180.819 44.2546 179.391 44.1154 178.014 44.3876C176.636 44.6597 175.371 45.331 174.378 46.3166C173.385 47.3021 172.709 48.5576 172.435 49.9242C172.162 51.2908 172.303 52.7072 172.842 53.9941C173.38 55.281 174.291 56.3807 175.459 57.1541C176.628 57.9274 178.001 58.3397 179.406 58.3387C181.288 58.3374 183.093 57.5947 184.424 56.274C185.754 54.9532 186.502 53.1624 186.502 51.2953ZM146.317 51.2953C146.317 49.902 145.901 48.54 145.12 47.3816C144.34 46.2232 143.23 45.3205 141.932 44.7875C140.634 44.2546 139.206 44.1154 137.829 44.3876C136.451 44.6597 135.186 45.331 134.193 46.3166C133.2 47.3021 132.524 48.5576 132.251 49.9242C131.977 51.2908 132.119 52.7072 132.657 53.9941C133.195 55.281 134.106 56.3807 135.274 57.1541C136.443 57.9274 137.816 58.3397 139.221 58.3387C141.103 58.3374 142.908 57.5947 144.239 56.274C145.57 54.9532 146.317 53.1624 146.317 51.2953ZM60.1199 58.5616C58.6709 58.5616 57.2546 58.1354 56.0498 57.337C54.8451 56.5385 53.9061 55.4037 53.3517 54.0759C52.7972 52.7482 52.6521 51.2872 52.9348 49.8777C53.2174 48.4681 53.9152 47.1734 54.9397 46.1572C55.9642 45.141 57.2696 44.4489 58.6907 44.1686C60.1117 43.8882 61.5847 44.0321 62.9233 44.5821C64.262 45.132 65.4061 46.0634 66.2111 47.2583C67.016 48.4533 67.4457 49.8581 67.4457 51.2953C67.4576 52.2403 67.2811 53.1783 66.9266 54.0555C66.572 54.9327 66.0462 55.7318 65.3795 56.407C64.7127 57.0821 63.9181 57.62 63.0412 57.9897C62.1643 58.3595 61.2225 58.5538 60.2697 58.5616H60.0999H60.1199ZM0 33.6322L15.191 69.1812L9.69788 82H23.0462L43.2909 33.6322H30.0175L21.7828 54.3365L13.633 33.6322H0ZM158.237 51.2953C158.237 55.0277 157.121 58.6763 155.031 61.7798C152.94 64.8832 149.969 67.302 146.492 68.7303C143.015 70.1587 139.19 70.5324 135.499 69.8043C131.808 69.0761 128.418 67.2787 125.757 64.6395C123.097 62.0003 121.284 58.6377 120.55 54.9769C119.816 51.3162 120.193 47.5217 121.633 44.0734C123.073 40.6251 125.512 37.6777 128.641 35.6041C131.769 33.5305 135.448 32.4236 139.211 32.4236C141.71 32.4236 144.184 32.9118 146.492 33.8602C148.8 34.8086 150.898 36.1986 152.665 37.951C154.431 39.7034 155.833 41.7838 156.789 44.0734C157.745 46.363 158.237 48.817 158.237 51.2953ZM198.422 51.2953C198.423 55.0291 197.308 58.6794 195.217 61.7844C193.126 64.8894 190.154 67.3096 186.676 68.7389C183.198 70.1683 179.371 70.5425 175.679 69.8143C171.987 69.0861 168.596 67.2882 165.934 64.6479C163.272 62.0077 161.459 58.6438 160.725 54.9816C159.991 51.3195 160.368 47.5236 161.809 44.0742C163.25 40.6247 165.69 37.6767 168.821 35.6029C171.951 33.5291 175.631 32.4227 179.396 32.4236C181.894 32.4236 184.368 32.9118 186.677 33.8602C188.985 34.8086 191.083 36.1986 192.849 37.951C194.616 39.7034 196.018 41.7838 196.974 44.0734C197.93 46.363 198.422 48.817 198.422 51.2953ZM83.4906 18V68.8989H96.045V50.1115C96.045 46.4511 97.8327 44.2518 100.674 44.2518C103.516 44.2518 105.074 46.1687 105.074 49.7003V68.9088H117.628V46.7334C117.628 38.2833 112.969 32.7902 105.443 32.7902C103.651 32.7194 101.868 33.0703 100.239 33.8141C98.6096 34.5579 97.1811 35.6735 96.0699 37.0697V18H83.4906ZM67.1611 33.6322V36.931C65.9726 35.5761 64.4942 34.5012 62.8338 33.7849C61.1734 33.0685 59.3727 32.7287 57.563 32.7902C47.8502 32.7902 40.5243 41.2403 40.5243 51.2953C40.5243 61.3502 47.6804 69.8548 57.563 69.8548C59.3833 69.9344 61.1973 69.5943 62.8627 68.8612C64.5281 68.1281 65.9994 67.022 67.1611 65.6298V68.9236H79.2909V33.657L67.1611 33.6322Z" fill="white"/>
<path d="M258.195 32.8777C256.355 32.772 254.517 33.1287 252.85 33.9153C251.184 34.7018 249.74 35.8932 248.653 37.3806V33.9871H235.705V69.0312H248.653V51.0104C248.575 49.549 249.007 48.106 249.875 46.927C250.319 46.4302 250.868 46.0391 251.483 45.7826C252.098 45.5261 252.763 45.4106 253.429 45.4447C256.292 45.4447 257.775 47.0296 257.775 50.162V69.0312H270.713V48.7823C271.096 44.5389 269.93 40.3003 267.43 36.8492C266.281 35.5448 264.857 34.5118 263.26 33.825C261.663 33.1382 259.933 32.8146 258.195 32.8777Z" fill="white"/>
<path d="M292.942 32.8777H292.009C287.203 33.0215 282.651 35.066 279.352 38.562C276.054 42.0581 274.279 46.7198 274.417 51.5231C274.338 53.9617 274.769 56.3899 275.681 58.653C276.593 60.9162 277.967 62.9647 279.715 64.6681C283.632 68.2776 288.822 70.1856 294.145 69.9727C296.894 70.1395 299.646 69.7195 302.22 68.7406C304.793 67.7617 307.128 66.2462 309.07 64.2952L300.582 57.1354C298.9 58.5792 296.754 59.3701 294.537 59.3635C293.13 59.5633 291.696 59.337 290.419 58.7138C289.142 58.0906 288.081 57.0992 287.373 55.8675H310.693C311.061 54.3762 311.24 52.8446 311.225 51.3087C311.225 50.8892 311.225 50.479 311.225 50.0688C311.076 45.3678 309.068 40.9177 305.64 37.6948C302.213 34.472 297.646 32.7396 292.942 32.8777ZM287.205 47.5609C287.619 46.2965 288.445 45.2072 289.55 44.467C290.656 43.7268 291.979 43.3784 293.306 43.4776C294.62 43.3004 295.953 43.6212 297.042 44.3769C298.132 45.1326 298.899 46.2685 299.192 47.5609H287.205Z" fill="white"/>
<path d="M350.449 53.397L345.142 33.9871H335.329L330.021 53.397L325.991 33.9871H312.307L322.493 69.0311H335.646L340.002 52.5486L344.349 69.0311H357.501L367.688 33.9871H354.003L350.449 53.397Z" fill="white"/>
<path d="M398.563 52.3528C397.827 50.9508 396.704 49.7892 395.327 49.006C393.968 48.2964 392.547 47.7128 391.082 47.2626C389.719 46.8186 388.317 46.5064 386.894 46.3304C385.789 46.217 384.702 45.9697 383.657 45.5939C382.724 45.2769 382.323 44.8481 382.323 44.2607C382.323 43.4683 383.07 42.7784 384.767 42.7784C385.654 42.7885 386.514 43.0829 387.221 43.6183C387.928 44.1536 388.445 44.9017 388.694 45.7524L399.3 41.8834C398.073 38.9608 395.933 36.5135 393.199 34.9071C390.465 33.3007 387.285 32.6214 384.133 32.9709C380.501 32.9075 376.946 34.023 374.003 36.15C372.573 37.1407 371.419 38.4784 370.649 40.0375C369.878 41.5965 369.518 43.3257 369.6 45.0625C369.434 47.1431 369.934 49.2225 371.027 51.001C372.101 52.5018 373.57 53.6763 375.271 54.3945C376.866 55.0663 378.518 55.5966 380.206 55.9794L384.767 57.1447C385.933 57.5176 386.521 57.6295 386.521 58.6363C386.521 59.6432 385.719 60.1746 384.189 60.1746C383.077 60.238 381.977 59.9206 381.069 59.2749C380.162 58.6291 379.502 57.6936 379.198 56.6226L367.902 61.6755C370.393 67.2691 375.859 70.0007 384.291 70.0007C386.076 69.9917 387.855 69.7948 389.599 69.4133C391.33 68.9988 393.003 68.3726 394.58 67.5488C396.246 66.685 397.628 65.3616 398.563 63.7358C399.506 61.9868 400 60.0311 400 58.0443C400 56.0576 399.506 54.1019 398.563 52.3528Z" fill="white"/>
</svg>
